<svg width="200" height="200" viewBox="0 0 200 200" xmlns="http://www.w3.org/2000/svg">
  <!-- 背景圆形 -->
  <circle cx="100" cy="100" r="90" fill="#f8fafc" stroke="#e2e8f0" stroke-width="2"/>
  
  <!-- 主要导航图标 - 现代化的指南针/导航设计 -->
  <g transform="translate(100,100)">
    <!-- 外圈 -->
    <circle cx="0" cy="0" r="45" fill="none" stroke="#3b82f6" stroke-width="3"/>
    
    <!-- 内圈 -->
    <circle cx="0" cy="0" r="30" fill="none" stroke="#60a5fa" stroke-width="2" opacity="0.6"/>
    
    <!-- 导航指针 -->
    <path d="M 0,-35 L 8,-15 L 0,-5 L -8,-15 Z" fill="#1e40af"/>
    <path d="M 0,35 L 8,15 L 0,5 L -8,15 Z" fill="#94a3b8"/>
    
    <!-- 网格点表示网站节点 -->
    <circle cx="-20" cy="-20" r="3" fill="#6366f1"/>
    <circle cx="20" cy="-20" r="3" fill="#6366f1"/>
    <circle cx="-20" cy="20" r="3" fill="#6366f1"/>
    <circle cx="20" cy="20" r="3" fill="#6366f1"/>
    
    <!-- 连接线表示导航关系 -->
    <line x1="-20" y1="-20" x2="0" y2="-5" stroke="#a5b4fc" stroke-width="1.5" opacity="0.7"/>
    <line x1="20" y1="-20" x2="0" y2="-5" stroke="#a5b4fc" stroke-width="1.5" opacity="0.7"/>
    <line x1="-20" y1="20" x2="0" y2="5" stroke="#a5b4fc" stroke-width="1.5" opacity="0.7"/>
    <line x1="20" y1="20" x2="0" y2="5" stroke="#a5b4fc" stroke-width="1.5" opacity="0.7"/>
    
    <!-- 中心点 -->
    <circle cx="0" cy="0" r="4" fill="#1e40af"/>
  </g>
  

</svg>