<svg width="512" height="512" viewBox="0 0 512 512" xmlns="http://www.w3.org/2000/svg">
  <!-- 背景圆形 -->
  <circle cx="256" cy="256" r="230" fill="#f8fafc" stroke="#e2e8f0" stroke-width="4"/>
  
  <!-- 主要导航图标 - 现代化的指南针/导航设计 -->
  <g transform="translate(256,256)">
    <!-- 外圈 -->
    <circle cx="0" cy="0" r="115" fill="none" stroke="#3b82f6" stroke-width="6"/>
    
    <!-- 内圈 -->
    <circle cx="0" cy="0" r="76" fill="none" stroke="#60a5fa" stroke-width="4" opacity="0.6"/>
    
    <!-- 导航指针 -->
    <path d="M 0,-90 L 20,-38 L 0,-12 L -20,-38 Z" fill="#1e40af"/>
    <path d="M 0,90 L 20,38 L 0,12 L -20,38 Z" fill="#94a3b8"/>
    
    <!-- 网格点表示网站节点 -->
    <circle cx="-51" cy="-51" r="8" fill="#6366f1"/>
    <circle cx="51" cy="-51" r="8" fill="#6366f1"/>
    <circle cx="-51" cy="51" r="8" fill="#6366f1"/>
    <circle cx="51" cy="51" r="8" fill="#6366f1"/>
    
    <!-- 连接线表示导航关系 -->
    <line x1="-51" y1="-51" x2="0" y2="-12" stroke="#a5b4fc" stroke-width="3" opacity="0.7"/>
    <line x1="51" y1="-51" x2="0" y2="-12" stroke="#a5b4fc" stroke-width="3" opacity="0.7"/>
    <line x1="-51" y1="51" x2="0" y2="12" stroke="#a5b4fc" stroke-width="3" opacity="0.7"/>
    <line x1="51" y1="51" x2="0" y2="12" stroke="#a5b4fc" stroke-width="3" opacity="0.7"/>
    
    <!-- 中心点 -->
    <circle cx="0" cy="0" r="10" fill="#1e40af"/>
  </g>
</svg>